<svg xmlns="http://www.w3.org/2000/svg" width="10.472" height="10.472" viewBox="0 0 10.472 10.472">
  <path id="facebook" d="M9.062,0H1.413A1.411,1.411,0,0,0,0,1.411V9.061a1.411,1.411,0,0,0,1.411,1.411H5.186L5.192,6.73H4.22A.229.229,0,0,1,3.991,6.5l0-1.206a.229.229,0,0,1,.229-.23h.97V3.9A1.9,1.9,0,0,1,7.218,1.81h.99a.229.229,0,0,1,.229.229V3.057a.229.229,0,0,1-.229.229H7.6c-.656,0-.783.312-.783.769V5.065H8.26a.229.229,0,0,1,.228.256L8.344,6.527a.229.229,0,0,1-.228.2H6.824l-.006,3.742H9.063a1.411,1.411,0,0,0,1.411-1.411V1.411A1.411,1.411,0,0,0,9.062,0Z" transform="translate(-0.002 0)" fill="#fff"/>
</svg>
